<svg width="21" height="25" viewBox="0 0 21 25" fill="none" xmlns="http://www.w3.org/2000/svg">
<path d="M0 25H13.1558C18.3442 25 21 22.5893 21 18V17.9286C21 14.5179 19.3116 12.4464 16.0578 11.8571V11.5357C18.7839 11 20.2085 9.17857 20.2085 6.21429V6.125C20.2085 2.08929 17.7286 0 12.8744 0H0V25ZM5.18844 10.2321V3.53571H11.3266C13.8065 3.53571 15.0377 4.64286 15.0377 6.82143V6.89286C15.0377 9.10714 13.8065 10.2321 11.3266 10.2321H5.18844ZM5.18844 21.4464V13.4821H11.4849C14.2111 13.4821 15.5653 14.8036 15.5653 17.3929V17.4643C15.5653 20.1071 14.2111 21.4464 11.4849 21.4464H5.18844Z" fill="#333333"/>
</svg>
