<svg width="30" height="29" viewBox="0 0 30 29" fill="none" xmlns="http://www.w3.org/2000/svg">
<rect width="9.15446" height="2.28862" transform="matrix(-0.718931 0.695081 0.718931 0.695081 6.58154 21.0461)" fill="white"/>
<path fill-rule="evenodd" clip-rule="evenodd" d="M16.1246 24.174C10.0376 24.174 5.32763 19.2726 5.32763 13.5104C5.32763 7.74823 10.0376 2.84676 16.1246 2.84676C22.2115 2.84676 26.9215 7.74823 26.9215 13.5104C26.9215 19.2726 22.2115 24.174 16.1246 24.174ZM16.1246 26.8399C8.76285 26.8399 2.79502 20.8721 2.79502 13.5104C2.79502 6.14869 8.76285 0.180847 16.1246 0.180847C23.4863 0.180847 29.4541 6.14869 29.4541 13.5104C29.4541 20.8721 23.4863 26.8399 16.1246 26.8399Z" fill="white"/>
</svg>
